<svg width="414" height="896" viewBox="0 0 414 896" fill="none" xmlns="http://www.w3.org/2000/svg">
<g clip-path="url(#clip0_74_2)">
<rect width="414" height="896" fill="white"/>
<rect width="415" height="895" fill="url(#paint0_linear_74_2)"/>
<path d="M414 834.623V815V812C414 812 402.15 797.246 399.226 795.637C397.396 794.63 394.982 794.787 393.153 793.78C390.698 792.429 389.795 789.041 387.079 788.211C385.799 787.819 384.154 788.897 383.031 788.211C381.775 787.443 382.262 785.265 381.006 784.498C379.883 783.811 378.267 784.798 376.958 784.498C372.052 783.373 370.647 779.402 366.836 777.072C365.06 775.986 362.272 776.599 360.763 775.215C360.285 774.778 361.24 773.796 360.763 773.359C359.808 772.484 357.317 774.466 356.714 773.359C354.492 769.283 357.694 770.095 352.665 767.789C347.978 765.64 336.398 768.43 332.421 769.646C319.071 773.727 325.526 774.113 320.275 778.928C318.471 780.583 314.328 779.799 312.178 780.785C306.459 783.407 303.052 788.454 298.007 791.924C293.881 794.762 289.976 794.978 285.861 797.493C279.632 801.301 275.895 808.537 269.666 812.345C267.352 813.76 262.315 814.364 259.544 816.058C254.253 819.293 243.267 823.56 239.3 827.197C238.823 827.635 239.904 828.777 239.3 829.054C238.093 829.607 236.532 828.662 235.252 829.054C232.854 829.787 231.455 833.579 229.179 834.623C225.741 836.199 220.667 836.67 217.032 838.336C208.607 842.199 219.196 838.208 215.008 842.049C211.985 844.822 206.283 844.716 202.862 845.762C201.051 846.316 200.624 848.922 198.813 849.475C197.353 849.922 189.828 850.289 188.691 851.332C188.214 851.769 189.295 852.912 188.691 853.188C186.88 854.019 184.049 851.876 182.618 853.188C182.141 853.626 183.095 854.607 182.618 855.045C181.606 855.973 177.557 854.116 176.545 855.045C172.356 858.886 182.945 854.895 174.521 858.758C171.402 860.188 165.801 859.043 162.374 860.614C160.667 861.397 160.033 863.544 158.326 864.327C153.27 866.645 121.731 864.327 115.814 864.327C103.451 864.327 84.2774 862.829 73.302 866.184C70.9939 866.889 69.4879 869.068 67.2289 869.897C62.9913 871.451 57.3583 870.439 53.0583 871.753C49.8327 872.739 46.7088 876.458 42.9364 877.323C41.6271 877.623 40.0948 876.769 38.8877 877.323C37.1806 878.106 36.546 880.253 34.8389 881.036C29.1322 883.652 24.2663 882.171 18.6439 884.749C11.6341 887.963 7.52962 890.698 0 893V894V895V896H6.0001H56C56 896 86.3559 896 113.5 896H132H138.5H145.5H151.5H163.5H203.5H223H239.3C239.3 896 259.416 895.452 263 896H274.43H285.861H314.202H333.5H370.884H391.5H414V879.5V869V855.045V834.623Z" fill="#97B7BE"/>
<path d="M0.500061 809.5V801.5V778.5V758.5C4.61488 756.237 10.7667 754.467 14.8815 752.204C20.4021 749.167 22.4312 741.55 28.5389 739.683C31.4181 738.803 35.1184 741.226 37.6435 739.683C40.4669 737.958 39.3727 733.062 42.1959 731.336C44.7212 729.793 48.3564 732.011 51.3005 731.336C62.3335 728.807 65.4918 719.88 74.0627 714.642C78.0554 712.202 84.3266 713.579 87.7198 710.468C88.7929 709.485 86.6469 707.279 87.7198 706.295C89.8659 704.327 95.4673 708.783 96.8245 706.295L132 682.5C132 682.5 142.511 695.215 151.453 697.948C181.475 707.122 166.96 707.991 178.768 718.815C182.826 722.536 192.142 720.773 196.977 722.989C209.837 728.884 217.499 740.23 228.844 748.03C238.123 754.41 246.905 754.895 256.158 760.551C270.166 769.112 278.57 785.378 292.577 793.939C297.782 797.12 309.109 798.478 315.339 802.286C327.238 809.559 351.944 819.15 360.863 827.327C361.936 828.311 359.506 830.878 360.863 831.501C363.578 832.745 367.089 830.621 369.968 831.501C375.361 833.149 378.506 841.675 383.625 844.021L415.492 863L415.492 871.5V881.583V895H380H342.5H315.339H286H259.5H223H190H158H121H87.7198H55.0001H0.500061V867.5V845V826V809.5Z" fill="#44797D"/>
<path d="M0 668V637C22.6721 637 76.2951 642.161 98.9672 642.161C133.766 642.161 168.565 642.161 203.364 642.161C210.219 642.161 217.073 642.161 223.928 642.161C227.091 642.161 230.255 642.161 233.418 642.161C233.945 642.161 235 642.441 235 642.161C235 641.262 202.436 644.402 200.201 644.675C186.44 646.357 190.361 646.798 174.892 648.027C169.133 648.484 163.223 648.313 157.493 648.865C151.578 649.434 145.968 650.702 140.093 651.378C122.73 653.378 105.274 655.198 87.8948 657.244C67.3 659.668 45.7618 663.923 24.6237 664.785L0 668Z" fill="white"/>
<path d="M414 705V682C398.081 682 360.431 685.829 344.512 685.829C320.079 685.829 295.646 685.829 271.212 685.829C266.4 685.829 261.587 685.829 256.774 685.829C254.553 685.829 252.332 685.829 250.111 685.829C249.74 685.829 249 686.037 249 685.829C249 685.162 271.864 687.492 273.433 687.694C283.095 688.943 280.342 689.269 291.203 690.181C295.247 690.521 299.397 690.393 303.42 690.803C307.573 691.225 311.512 692.166 315.637 692.668C327.828 694.151 340.084 695.502 352.287 697.019C366.747 698.818 381.869 701.975 396.711 702.614L414 705Z" fill="white"/>
</g>
<defs>
<linearGradient id="paint0_linear_74_2" x1="207.5" y1="0" x2="207.5" y2="895" gradientUnits="userSpaceOnUse">
<stop stop-color="#049CCC"/>
<stop offset="1" stop-color="#B0ECFF"/>
</linearGradient>
<clipPath id="clip0_74_2">
<rect width="414" height="896" fill="white"/>
</clipPath>
</defs>
</svg>
